<svg xmlns="http://www.w3.org/2000/svg" xmlns:xlink="http://www.w3.org/1999/xlink" width="500" zoomAndPan="magnify" viewBox="0 0 375 374.999991" height="500" preserveAspectRatio="xMidYMid meet" version="1.0"><defs><g/><clipPath id="e5fa33aefd"><path d="M 327.195312 204.378906 L 337.515625 204.378906 L 337.515625 213.398438 L 327.195312 213.398438 Z M 327.195312 204.378906 " clip-rule="nonzero"/></clipPath><clipPath id="0d93dca92e"><path d="M 332.347656 204.378906 L 337.5 213.398438 L 327.195312 213.398438 Z M 332.347656 204.378906 " clip-rule="nonzero"/></clipPath><clipPath id="93f7f42c9d"><path d="M 0.195312 0.378906 L 10.515625 0.378906 L 10.515625 9.398438 L 0.195312 9.398438 Z M 0.195312 0.378906 " clip-rule="nonzero"/></clipPath><clipPath id="8535bf236d"><path d="M 5.347656 0.378906 L 10.5 9.398438 L 0.195312 9.398438 Z M 5.347656 0.378906 " clip-rule="nonzero"/></clipPath><clipPath id="0afba69c86"><rect x="0" width="11" y="0" height="10"/></clipPath><clipPath id="f9ea7959b5"><path d="M 78 174 L 88 174 L 88 186 L 78 186 Z M 78 174 " clip-rule="nonzero"/></clipPath><clipPath id="d97f4a251d"><path d="M 78.351562 184.847656 L 78.8125 174.535156 L 87.820312 174.941406 L 87.359375 185.25 Z M 78.351562 184.847656 " clip-rule="nonzero"/></clipPath><clipPath id="922f590ba5"><path d="M 78.582031 179.699219 L 87.820312 174.957031 L 87.359375 185.25 Z M 78.582031 179.699219 " clip-rule="nonzero"/></clipPath><clipPath id="f8127f0346"><path d="M 0.480469 0.71875 L 9.839844 0.71875 L 9.839844 11.28125 L 0.480469 11.28125 Z M 0.480469 0.71875 " clip-rule="nonzero"/></clipPath><clipPath id="3a0eb88684"><path d="M 0.351562 10.847656 L 0.8125 0.535156 L 9.820312 0.941406 L 9.359375 11.25 Z M 0.351562 10.847656 " clip-rule="nonzero"/></clipPath><clipPath id="fcca082144"><path d="M 0.582031 5.699219 L 9.820312 0.957031 L 9.359375 11.25 Z M 0.582031 5.699219 " clip-rule="nonzero"/></clipPath><clipPath id="cfa2a747f1"><rect x="0" width="10" y="0" height="12"/></clipPath></defs><rect x="-37.5" width="450" fill="#ffffff" y="-37.499999" height="449.999989" fill-opacity="1"/><rect x="-37.5" width="450" fill="#f6f4f0" y="-37.499999" height="449.999989" fill-opacity="1"/><g fill="#222222" fill-opacity="1"><g transform="translate(39.54106, 208.03112)"><g><path d="M 14.84375 18.265625 C 11.457031 18.265625 8.609375 17.625 6.296875 16.34375 C 3.984375 15.0625 2.242188 13.304688 1.078125 11.078125 C -0.0859375 8.859375 -0.671875 6.332031 -0.671875 3.5 C -0.671875 0.664062 -0.113281 -2.347656 1 -5.546875 C 2.113281 -8.742188 3.960938 -11.898438 6.546875 -15.015625 C 9.128906 -18.128906 12.617188 -21.019531 17.015625 -23.6875 L 17.015625 -46.703125 L 5.421875 -46.703125 L 5.421875 -58.390625 L 30.28125 -58.390625 L 30.28125 0.671875 C 30.28125 4.171875 29.722656 7.238281 28.609375 9.875 C 27.492188 12.519531 25.796875 14.578125 23.515625 16.046875 C 21.234375 17.523438 18.34375 18.265625 14.84375 18.265625 Z M 14.09375 6.25 C 14.757812 6.25 15.34375 6.054688 15.84375 5.671875 C 16.34375 5.285156 16.71875 4.742188 16.96875 4.046875 C 17.21875 3.347656 17.34375 2.523438 17.34375 1.578125 L 17.34375 -11.171875 C 15.789062 -9.898438 14.523438 -8.582031 13.546875 -7.21875 C 12.578125 -5.851562 11.867188 -4.445312 11.421875 -3 C 10.984375 -1.550781 10.765625 0.03125 10.765625 1.75 C 10.765625 3.195312 11.097656 4.304688 11.765625 5.078125 C 12.429688 5.859375 13.207031 6.25 14.09375 6.25 Z M 14.09375 6.25 "/></g></g></g><g fill="#222222" fill-opacity="1"><g transform="translate(68.05938, 208.03112)"><g><path d="M 33.359375 1.078125 C 28.691406 1.078125 24.46875 0.300781 20.6875 -1.25 C 16.90625 -2.8125 13.648438 -4.976562 10.921875 -7.75 C 8.203125 -10.53125 6.101562 -13.753906 4.625 -17.421875 C 3.15625 -21.097656 2.421875 -25.050781 2.421875 -29.28125 C 2.421875 -33.5 3.15625 -37.441406 4.625 -41.109375 C 6.101562 -44.785156 8.191406 -48 10.890625 -50.75 C 13.585938 -53.5 16.835938 -55.640625 20.640625 -57.171875 C 24.453125 -58.703125 28.691406 -59.46875 33.359375 -59.46875 C 37.972656 -59.46875 42.1875 -58.703125 46 -57.171875 C 49.8125 -55.640625 53.0625 -53.5 55.75 -50.75 C 58.445312 -48 60.546875 -44.773438 62.046875 -41.078125 C 63.554688 -37.378906 64.3125 -33.445312 64.3125 -29.28125 C 64.3125 -25.050781 63.554688 -21.097656 62.046875 -17.421875 C 60.546875 -13.753906 58.445312 -10.53125 55.75 -7.75 C 53.0625 -4.976562 49.8125 -2.8125 46 -1.25 C 42.1875 0.300781 37.972656 1.078125 33.359375 1.078125 Z M 33.359375 -10.84375 C 35.804688 -10.84375 38.070312 -11.300781 40.15625 -12.21875 C 42.238281 -13.132812 44.03125 -14.425781 45.53125 -16.09375 C 47.039062 -17.757812 48.210938 -19.71875 49.046875 -21.96875 C 49.878906 -24.226562 50.296875 -26.664062 50.296875 -29.28125 C 50.296875 -31.894531 49.878906 -34.3125 49.046875 -36.53125 C 48.210938 -38.757812 47.039062 -40.707031 45.53125 -42.375 C 44.03125 -44.039062 42.238281 -45.332031 40.15625 -46.25 C 38.070312 -47.164062 35.804688 -47.625 33.359375 -47.625 C 30.859375 -47.625 28.578125 -47.164062 26.515625 -46.25 C 24.460938 -45.332031 22.671875 -44.039062 21.140625 -42.375 C 19.609375 -40.707031 18.441406 -38.742188 17.640625 -36.484375 C 16.835938 -34.234375 16.4375 -31.832031 16.4375 -29.28125 C 16.4375 -26.664062 16.835938 -24.226562 17.640625 -21.96875 C 18.441406 -19.71875 19.609375 -17.757812 21.140625 -16.09375 C 22.671875 -14.425781 24.460938 -13.132812 26.515625 -12.21875 C 28.578125 -11.300781 30.859375 -10.84375 33.359375 -10.84375 Z M 33.359375 -10.84375 "/></g></g></g><g fill="#222222" fill-opacity="1"><g transform="translate(127.849172, 208.03112)"><g><path d="M 3.75 0 L 3.75 -11.671875 L 13.84375 -11.671875 L 13.84375 -46.703125 L 3.75 -46.703125 L 3.75 -58.390625 L 37.859375 -58.390625 L 37.859375 -46.703125 L 27.78125 -46.703125 L 27.78125 -11.671875 L 37.859375 -11.671875 L 37.859375 0 Z M 3.75 0 "/></g></g></g><g fill="#222222" fill-opacity="1"><g transform="translate(162.62179, 208.03112)"><g><path d="M 46.203125 1 C 42.703125 1 39.5625 0.234375 36.78125 -1.296875 C 34 -2.828125 31.800781 -4.953125 30.1875 -7.671875 C 28.582031 -10.398438 27.78125 -13.488281 27.78125 -16.9375 L 27.78125 -42.453125 C 27.78125 -43.335938 27.554688 -44.140625 27.109375 -44.859375 C 26.660156 -45.585938 26.070312 -46.175781 25.34375 -46.625 C 24.625 -47.070312 23.820312 -47.296875 22.9375 -47.296875 C 22.050781 -47.296875 21.242188 -47.070312 20.515625 -46.625 C 19.796875 -46.175781 19.226562 -45.585938 18.8125 -44.859375 C 18.394531 -44.140625 18.1875 -43.335938 18.1875 -42.453125 L 18.1875 0 L 4.5 0 L 4.5 -41.453125 C 4.5 -44.953125 5.289062 -48.035156 6.875 -50.703125 C 8.46875 -53.378906 10.664062 -55.492188 13.46875 -57.046875 C 16.28125 -58.609375 19.4375 -59.390625 22.9375 -59.390625 C 26.5 -59.390625 29.664062 -58.609375 32.4375 -57.046875 C 35.21875 -55.492188 37.414062 -53.378906 39.03125 -50.703125 C 40.644531 -48.035156 41.453125 -44.953125 41.453125 -41.453125 L 41.453125 -15.9375 C 41.453125 -15.039062 41.671875 -14.21875 42.109375 -13.46875 C 42.554688 -12.71875 43.128906 -12.132812 43.828125 -11.71875 C 44.523438 -11.300781 45.289062 -11.09375 46.125 -11.09375 C 47.007812 -11.09375 47.828125 -11.300781 48.578125 -11.71875 C 49.328125 -12.132812 49.925781 -12.71875 50.375 -13.46875 C 50.820312 -14.21875 51.046875 -15.039062 51.046875 -15.9375 L 51.046875 -58.390625 L 64.640625 -58.390625 L 64.640625 -16.9375 C 64.640625 -13.488281 63.832031 -10.398438 62.21875 -7.671875 C 60.601562 -4.953125 58.40625 -2.828125 55.625 -1.296875 C 52.851562 0.234375 49.710938 1 46.203125 1 Z M 46.203125 1 "/></g></g></g><g fill="#222222" fill-opacity="1"><g transform="translate(224.996687, 208.03112)"><g><path d="M 20.6875 0 C 17.40625 0 14.425781 -0.765625 11.75 -2.296875 C 9.082031 -3.828125 6.957031 -5.882812 5.375 -8.46875 C 3.789062 -11.050781 3 -13.984375 3 -17.265625 C 3 -19.710938 3.539062 -22.003906 4.625 -24.140625 C 5.707031 -26.285156 7.171875 -28.132812 9.015625 -29.6875 C 7.234375 -31.1875 5.828125 -32.960938 4.796875 -35.015625 C 3.765625 -37.078125 3.25 -39.25 3.25 -41.53125 C 3.25 -44.757812 4.023438 -47.640625 5.578125 -50.171875 C 7.140625 -52.703125 9.226562 -54.703125 11.84375 -56.171875 C 14.457031 -57.648438 17.347656 -58.390625 20.515625 -58.390625 L 45.125 -58.390625 L 45.125 -46.703125 L 22.6875 -46.703125 C 21.632812 -46.703125 20.660156 -46.453125 19.765625 -45.953125 C 18.878906 -45.453125 18.171875 -44.785156 17.640625 -43.953125 C 17.109375 -43.117188 16.84375 -42.144531 16.84375 -41.03125 C 16.84375 -39.976562 17.109375 -39.019531 17.640625 -38.15625 C 18.171875 -37.289062 18.878906 -36.625 19.765625 -36.15625 C 20.660156 -35.6875 21.632812 -35.453125 22.6875 -35.453125 L 42.28125 -35.453125 L 42.28125 -23.765625 L 23.109375 -23.765625 C 21.941406 -23.765625 20.882812 -23.488281 19.9375 -22.9375 C 18.988281 -22.382812 18.234375 -21.660156 17.671875 -20.765625 C 17.117188 -19.878906 16.84375 -18.851562 16.84375 -17.6875 C 16.84375 -16.570312 17.117188 -15.554688 17.671875 -14.640625 C 18.234375 -13.722656 18.988281 -13.015625 19.9375 -12.515625 C 20.882812 -12.015625 21.941406 -11.765625 23.109375 -11.765625 L 45.125 -11.765625 L 45.125 0 Z M 20.6875 0 "/></g></g></g><g fill="#222222" fill-opacity="1"><g transform="translate(266.52394, 208.03112)"><g><path d="M 5.09375 0 L 5.09375 -58.390625 L 31.78125 -58.390625 C 35.726562 -58.390625 39.328125 -57.523438 42.578125 -55.796875 C 45.828125 -54.078125 48.410156 -51.6875 50.328125 -48.625 C 52.253906 -45.5625 53.21875 -42.03125 53.21875 -38.03125 C 53.21875 -34.300781 52.328125 -30.945312 50.546875 -27.96875 C 48.765625 -25 46.425781 -22.597656 43.53125 -20.765625 L 48.203125 -12.84375 C 48.484375 -12.457031 48.800781 -12.148438 49.15625 -11.921875 C 49.519531 -11.703125 50.007812 -11.59375 50.625 -11.59375 L 55.796875 -11.59375 L 55.796875 0 L 47.625 0 C 45.125 0 42.84375 -0.597656 40.78125 -1.796875 C 38.726562 -2.992188 37.117188 -4.5625 35.953125 -6.5 L 29.6875 -17.59375 C 29.300781 -17.59375 28.898438 -17.59375 28.484375 -17.59375 C 28.066406 -17.59375 27.632812 -17.59375 27.1875 -17.59375 L 19.09375 -17.59375 L 19.09375 0 Z M 19.09375 -29.1875 L 30.1875 -29.1875 C 31.800781 -29.1875 33.300781 -29.535156 34.6875 -30.234375 C 36.082031 -30.929688 37.179688 -31.929688 37.984375 -33.234375 C 38.796875 -34.546875 39.203125 -36.117188 39.203125 -37.953125 C 39.203125 -39.785156 38.785156 -41.351562 37.953125 -42.65625 C 37.117188 -43.96875 36.019531 -44.96875 34.65625 -45.65625 C 33.289062 -46.351562 31.800781 -46.703125 30.1875 -46.703125 L 19.09375 -46.703125 Z M 19.09375 -29.1875 "/></g></g></g><g fill="#222222" fill-opacity="1"><g transform="translate(312.441577, 209.684225)"><g/></g></g><g fill="#222222" fill-opacity="1"><g transform="translate(321.113451, 209.684225)"><g><path d="M 11.171875 1 C 8.953125 1 7.050781 0.207031 5.46875 -1.375 C 3.882812 -2.957031 3.09375 -4.832031 3.09375 -7 C 3.09375 -9.226562 3.882812 -11.132812 5.46875 -12.71875 C 7.050781 -14.300781 8.953125 -15.09375 11.171875 -15.09375 C 13.335938 -15.09375 15.210938 -14.300781 16.796875 -12.71875 C 18.390625 -11.132812 19.1875 -9.226562 19.1875 -7 C 19.1875 -5.5625 18.820312 -4.226562 18.09375 -3 C 17.375 -1.78125 16.414062 -0.804688 15.21875 -0.078125 C 14.019531 0.640625 12.671875 1 11.171875 1 Z M 11.171875 1 "/></g></g></g><g clip-path="url(#e5fa33aefd)"><g clip-path="url(#0d93dca92e)"><g transform="matrix(1, 0, 0, 1, 327, 204)"><g clip-path="url(#0afba69c86)"><g clip-path="url(#93f7f42c9d)"><g clip-path="url(#8535bf236d)"><path fill="#f6f4f0" d="M 0.195312 0.378906 L 10.515625 0.378906 L 10.515625 9.398438 L 0.195312 9.398438 Z M 0.195312 0.378906 " fill-opacity="1" fill-rule="nonzero"/></g></g></g></g></g></g><g fill="#f6f4f0" fill-opacity="1"><g transform="translate(132.380722, 208.505845)"><g><path d="M 0.859375 0 L 0.859375 -9.796875 L 5.0625 -9.796875 C 5.71875 -9.796875 6.316406 -9.644531 6.859375 -9.34375 C 7.410156 -9.050781 7.847656 -8.640625 8.171875 -8.109375 C 8.503906 -7.585938 8.671875 -6.976562 8.671875 -6.28125 C 8.671875 -5.59375 8.503906 -4.976562 8.171875 -4.4375 C 7.847656 -3.90625 7.414062 -3.488281 6.875 -3.1875 C 6.332031 -2.894531 5.726562 -2.75 5.0625 -2.75 L 3.203125 -2.75 L 3.203125 0 Z M 3.203125 -4.71875 L 4.796875 -4.71875 C 5.078125 -4.71875 5.328125 -4.773438 5.546875 -4.890625 C 5.773438 -5.015625 5.957031 -5.191406 6.09375 -5.421875 C 6.238281 -5.660156 6.3125 -5.941406 6.3125 -6.265625 C 6.3125 -6.597656 6.238281 -6.878906 6.09375 -7.109375 C 5.957031 -7.347656 5.773438 -7.53125 5.546875 -7.65625 C 5.316406 -7.78125 5.066406 -7.84375 4.796875 -7.84375 L 3.203125 -7.84375 Z M 3.203125 -4.71875 "/></g></g></g><g fill="#f6f4f0" fill-opacity="1"><g transform="translate(140.243728, 208.505845)"><g/></g></g><g fill="#f6f4f0" fill-opacity="1"><g transform="translate(142.803691, 208.505845)"><g><path d="M 0.859375 0 L 0.859375 -9.796875 L 5.328125 -9.796875 C 5.992188 -9.796875 6.597656 -9.648438 7.140625 -9.359375 C 7.691406 -9.078125 8.128906 -8.675781 8.453125 -8.15625 C 8.773438 -7.644531 8.9375 -7.054688 8.9375 -6.390625 C 8.9375 -5.765625 8.785156 -5.203125 8.484375 -4.703125 C 8.179688 -4.203125 7.789062 -3.796875 7.3125 -3.484375 L 8.09375 -2.15625 C 8.132812 -2.09375 8.1875 -2.039062 8.25 -2 C 8.3125 -1.96875 8.394531 -1.953125 8.5 -1.953125 L 9.359375 -1.953125 L 9.359375 0 L 8 0 C 7.570312 0 7.1875 -0.0976562 6.84375 -0.296875 C 6.5 -0.503906 6.226562 -0.769531 6.03125 -1.09375 L 4.984375 -2.953125 C 4.921875 -2.953125 4.851562 -2.953125 4.78125 -2.953125 C 4.707031 -2.953125 4.632812 -2.953125 4.5625 -2.953125 L 3.203125 -2.953125 L 3.203125 0 Z M 3.203125 -4.90625 L 5.0625 -4.90625 C 5.332031 -4.90625 5.582031 -4.960938 5.8125 -5.078125 C 6.050781 -5.191406 6.238281 -5.359375 6.375 -5.578125 C 6.507812 -5.796875 6.578125 -6.0625 6.578125 -6.375 C 6.578125 -6.675781 6.503906 -6.9375 6.359375 -7.15625 C 6.222656 -7.375 6.039062 -7.539062 5.8125 -7.65625 C 5.582031 -7.78125 5.332031 -7.84375 5.0625 -7.84375 L 3.203125 -7.84375 Z M 3.203125 -4.90625 "/></g></g></g><g fill="#f6f4f0" fill-opacity="1"><g transform="translate(151.226382, 208.505845)"><g/></g></g><g fill="#f6f4f0" fill-opacity="1"><g transform="translate(153.786345, 208.505845)"><g><path d="M 5.59375 0.1875 C 4.8125 0.1875 4.101562 0.0546875 3.46875 -0.203125 C 2.832031 -0.472656 2.285156 -0.835938 1.828125 -1.296875 C 1.367188 -1.765625 1.015625 -2.304688 0.765625 -2.921875 C 0.523438 -3.535156 0.40625 -4.195312 0.40625 -4.90625 C 0.40625 -5.625 0.523438 -6.289062 0.765625 -6.90625 C 1.015625 -7.519531 1.363281 -8.054688 1.8125 -8.515625 C 2.269531 -8.984375 2.816406 -9.34375 3.453125 -9.59375 C 4.097656 -9.851562 4.8125 -9.984375 5.59375 -9.984375 C 6.375 -9.984375 7.082031 -9.851562 7.71875 -9.59375 C 8.363281 -9.34375 8.910156 -8.984375 9.359375 -8.515625 C 9.804688 -8.054688 10.15625 -7.515625 10.40625 -6.890625 C 10.664062 -6.273438 10.796875 -5.613281 10.796875 -4.90625 C 10.796875 -4.195312 10.664062 -3.535156 10.40625 -2.921875 C 10.15625 -2.304688 9.804688 -1.765625 9.359375 -1.296875 C 8.910156 -0.835938 8.363281 -0.472656 7.71875 -0.203125 C 7.082031 0.0546875 6.375 0.1875 5.59375 0.1875 Z M 5.59375 -1.8125 C 6.007812 -1.8125 6.390625 -1.890625 6.734375 -2.046875 C 7.085938 -2.203125 7.390625 -2.421875 7.640625 -2.703125 C 7.890625 -2.984375 8.082031 -3.3125 8.21875 -3.6875 C 8.363281 -4.0625 8.4375 -4.46875 8.4375 -4.90625 C 8.4375 -5.351562 8.363281 -5.757812 8.21875 -6.125 C 8.082031 -6.5 7.890625 -6.828125 7.640625 -7.109375 C 7.390625 -7.390625 7.085938 -7.609375 6.734375 -7.765625 C 6.390625 -7.921875 6.007812 -8 5.59375 -8 C 5.175781 -8 4.796875 -7.921875 4.453125 -7.765625 C 4.109375 -7.609375 3.804688 -7.390625 3.546875 -7.109375 C 3.285156 -6.828125 3.085938 -6.5 2.953125 -6.125 C 2.828125 -5.75 2.765625 -5.34375 2.765625 -4.90625 C 2.765625 -4.46875 2.828125 -4.0625 2.953125 -3.6875 C 3.085938 -3.3125 3.285156 -2.984375 3.546875 -2.703125 C 3.804688 -2.421875 4.109375 -2.203125 4.453125 -2.046875 C 4.796875 -1.890625 5.175781 -1.8125 5.59375 -1.8125 Z M 5.59375 -1.8125 "/></g></g></g><g clip-path="url(#f9ea7959b5)"><g clip-path="url(#d97f4a251d)"><g clip-path="url(#922f590ba5)"><g transform="matrix(1, 0, 0, 1, 78, 174)"><g clip-path="url(#cfa2a747f1)"><g clip-path="url(#f8127f0346)"><g clip-path="url(#3a0eb88684)"><g clip-path="url(#fcca082144)"><path fill="#f6f4f0" d="M 0.351562 10.847656 L 0.8125 0.535156 L 9.820312 0.941406 L 9.359375 11.25 Z M 0.351562 10.847656 " fill-opacity="1" fill-rule="nonzero"/></g></g></g></g></g></g></g></g></svg>