<svg xmlns="http://www.w3.org/2000/svg" xmlns:xlink="http://www.w3.org/1999/xlink" width="500" zoomAndPan="magnify" viewBox="0 0 375 374.999991" height="500" preserveAspectRatio="xMidYMid meet" version="1.0"><defs><g/><clipPath id="c87a28f714"><rect x="0" width="66" y="0" height="24"/></clipPath><clipPath id="1899022879"><rect x="0" width="62" y="0" height="282"/></clipPath><clipPath id="868e175bb1"><path d="M 197.488281 219.222656 L 219.453125 219.222656 L 219.453125 238.414062 L 197.488281 238.414062 Z M 197.488281 219.222656 " clip-rule="nonzero"/></clipPath><clipPath id="0ea755c6f6"><path d="M 208.453125 219.222656 L 219.417969 238.414062 L 197.488281 238.414062 Z M 208.453125 219.222656 " clip-rule="nonzero"/></clipPath><clipPath id="80a77b529e"><path d="M 0.488281 0.222656 L 22.453125 0.222656 L 22.453125 19.414062 L 0.488281 19.414062 Z M 0.488281 0.222656 " clip-rule="nonzero"/></clipPath><clipPath id="b101f9a101"><path d="M 11.453125 0.222656 L 22.417969 19.414062 L 0.488281 19.414062 Z M 11.453125 0.222656 " clip-rule="nonzero"/></clipPath><clipPath id="ea03affd9b"><rect x="0" width="23" y="0" height="20"/></clipPath><clipPath id="0a6dae9d3e"><rect x="0" width="68" y="0" height="282"/></clipPath><clipPath id="b1c9ce128a"><path d="M 78 208 L 88 208 L 88 220 L 78 220 Z M 78 208 " clip-rule="nonzero"/></clipPath><clipPath id="065a237d4f"><path d="M 78.203125 218.699219 L 78.667969 208.386719 L 87.675781 208.792969 L 87.214844 219.101562 Z M 78.203125 218.699219 " clip-rule="nonzero"/></clipPath><clipPath id="ea22e3eb34"><path d="M 78.4375 213.550781 L 87.675781 208.808594 L 87.214844 219.101562 Z M 78.4375 213.550781 " clip-rule="nonzero"/></clipPath><clipPath id="d72f148f09"><path d="M 0.238281 0.800781 L 9.839844 0.800781 L 9.839844 11.121094 L 0.238281 11.121094 Z M 0.238281 0.800781 " clip-rule="nonzero"/></clipPath><clipPath id="087821d0c6"><path d="M 0.203125 10.699219 L 0.667969 0.386719 L 9.675781 0.792969 L 9.214844 11.101562 Z M 0.203125 10.699219 " clip-rule="nonzero"/></clipPath><clipPath id="c9e946a8b6"><path d="M 0.4375 5.550781 L 9.675781 0.808594 L 9.214844 11.101562 Z M 0.4375 5.550781 " clip-rule="nonzero"/></clipPath><clipPath id="ffce0d036e"><rect x="0" width="10" y="0" height="12"/></clipPath></defs><rect x="-37.5" width="450" fill="#ffffff" y="-37.499999" height="449.999989" fill-opacity="1"/><rect x="-37.5" width="450" fill="#f6f4f0" y="-37.499999" height="449.999989" fill-opacity="1"/><g transform="matrix(1, 0, 0, 1, 155, 251)"><g clip-path="url(#c87a28f714)"><g fill="#222222" fill-opacity="1"><g transform="translate(1.18209, 16.775718)"><g><path d="M 3.171875 -8.5625 L 6.359375 -8.5625 L 6.359375 -6.4375 L 3.171875 -6.4375 L 3.171875 -2.109375 L 7.1875 -2.109375 L 7.1875 0 L 0.84375 0 L 0.84375 -14.78125 L 7.1875 -14.78125 L 7.1875 -12.671875 L 3.171875 -12.671875 Z M 3.171875 -8.5625 "/></g></g></g><g fill="#222222" fill-opacity="1"><g transform="translate(8.798764, 16.775718)"><g><path d="M 0.546875 -11.234375 C 0.546875 -12.429688 0.832031 -13.347656 1.40625 -13.984375 C 1.976562 -14.628906 2.832031 -14.953125 3.96875 -14.953125 C 5.113281 -14.953125 5.96875 -14.628906 6.53125 -13.984375 C 7.101562 -13.347656 7.390625 -12.429688 7.390625 -11.234375 L 7.390625 -10.78125 L 5.203125 -10.78125 L 5.203125 -11.390625 C 5.203125 -11.921875 5.097656 -12.296875 4.890625 -12.515625 C 4.679688 -12.734375 4.394531 -12.84375 4.03125 -12.84375 C 3.664062 -12.84375 3.378906 -12.734375 3.171875 -12.515625 C 2.972656 -12.296875 2.875 -11.921875 2.875 -11.390625 C 2.875 -10.878906 2.984375 -10.429688 3.203125 -10.046875 C 3.429688 -9.660156 3.710938 -9.289062 4.046875 -8.9375 C 4.390625 -8.59375 4.753906 -8.25 5.140625 -7.90625 C 5.523438 -7.5625 5.882812 -7.1875 6.21875 -6.78125 C 6.5625 -6.375 6.847656 -5.910156 7.078125 -5.390625 C 7.304688 -4.867188 7.421875 -4.253906 7.421875 -3.546875 C 7.421875 -2.347656 7.125 -1.425781 6.53125 -0.78125 C 5.945312 -0.144531 5.085938 0.171875 3.953125 0.171875 C 2.804688 0.171875 1.941406 -0.144531 1.359375 -0.78125 C 0.773438 -1.425781 0.484375 -2.347656 0.484375 -3.546875 L 0.484375 -4.453125 L 2.6875 -4.453125 L 2.6875 -3.40625 C 2.6875 -2.863281 2.796875 -2.488281 3.015625 -2.28125 C 3.234375 -2.070312 3.523438 -1.96875 3.890625 -1.96875 C 4.253906 -1.96875 4.546875 -2.070312 4.765625 -2.28125 C 4.984375 -2.488281 5.09375 -2.863281 5.09375 -3.40625 C 5.09375 -3.90625 4.976562 -4.347656 4.75 -4.734375 C 4.53125 -5.128906 4.25 -5.5 3.90625 -5.84375 C 3.570312 -6.1875 3.207031 -6.53125 2.8125 -6.875 C 2.425781 -7.21875 2.0625 -7.59375 1.71875 -8 C 1.382812 -8.414062 1.101562 -8.882812 0.875 -9.40625 C 0.65625 -9.925781 0.546875 -10.535156 0.546875 -11.234375 Z M 0.546875 -11.234375 "/></g></g></g><g fill="#222222" fill-opacity="1"><g transform="translate(16.542039, 16.775718)"><g><path d="M 0.171875 -14.78125 L 7.34375 -14.78125 L 7.34375 -12.671875 L 4.921875 -12.671875 L 4.921875 0 L 2.59375 0 L 2.59375 -12.671875 L 0.171875 -12.671875 Z M 0.171875 -14.78125 "/></g></g></g><g fill="#222222" fill-opacity="1"><g transform="translate(23.905533, 16.775718)"><g><path d="M 3.078125 -2.234375 L 3.078125 0 L 0.84375 0 L 0.84375 -2.234375 Z M 3.078125 -2.234375 "/></g></g></g><g fill="#222222" fill-opacity="1"><g transform="translate(27.68211, 16.775718)"><g/></g></g><g fill="#222222" fill-opacity="1"><g transform="translate(30.804609, 16.775718)"><g><path d="M 5.453125 -11.15625 C 5.453125 -11.8125 5.34375 -12.253906 5.125 -12.484375 C 4.90625 -12.722656 4.613281 -12.84375 4.25 -12.84375 C 3.882812 -12.84375 3.59375 -12.734375 3.375 -12.515625 C 3.15625 -12.296875 3.046875 -11.921875 3.046875 -11.390625 L 3.046875 -9.796875 L 0.84375 -9.796875 L 0.84375 -11.234375 C 0.84375 -12.429688 1.132812 -13.347656 1.71875 -13.984375 C 2.300781 -14.628906 3.164062 -14.953125 4.3125 -14.953125 C 5.445312 -14.953125 6.304688 -14.628906 6.890625 -13.984375 C 7.484375 -13.347656 7.78125 -12.429688 7.78125 -11.234375 C 7.78125 -10.460938 7.664062 -9.765625 7.4375 -9.140625 C 7.207031 -8.515625 6.921875 -7.941406 6.578125 -7.421875 C 6.234375 -6.910156 5.859375 -6.4375 5.453125 -6 C 5.054688 -5.5625 4.6875 -5.144531 4.34375 -4.75 C 4 -4.351562 3.710938 -3.96875 3.484375 -3.59375 C 3.253906 -3.226562 3.140625 -2.835938 3.140625 -2.421875 C 3.140625 -2.285156 3.148438 -2.179688 3.171875 -2.109375 L 7.5625 -2.109375 L 7.5625 0 L 0.84375 0 L 0.84375 -1.8125 C 0.84375 -2.53125 0.953125 -3.164062 1.171875 -3.71875 C 1.398438 -4.269531 1.6875 -4.773438 2.03125 -5.234375 C 2.382812 -5.691406 2.753906 -6.117188 3.140625 -6.515625 C 3.535156 -6.921875 3.90625 -7.347656 4.25 -7.796875 C 4.601562 -8.242188 4.890625 -8.734375 5.109375 -9.265625 C 5.335938 -9.804688 5.453125 -10.4375 5.453125 -11.15625 Z M 5.453125 -11.15625 "/></g></g></g><g fill="#222222" fill-opacity="1"><g transform="translate(39.012083, 16.775718)"><g><path d="M 2.984375 -3.40625 C 2.984375 -2.863281 3.09375 -2.484375 3.3125 -2.265625 C 3.53125 -2.046875 3.820312 -1.9375 4.1875 -1.9375 C 4.550781 -1.9375 4.84375 -2.046875 5.0625 -2.265625 C 5.28125 -2.484375 5.390625 -2.863281 5.390625 -3.40625 L 5.390625 -11.390625 C 5.390625 -11.921875 5.28125 -12.296875 5.0625 -12.515625 C 4.84375 -12.734375 4.550781 -12.84375 4.1875 -12.84375 C 3.820312 -12.84375 3.53125 -12.734375 3.3125 -12.515625 C 3.09375 -12.296875 2.984375 -11.921875 2.984375 -11.390625 Z M 0.65625 -11.234375 C 0.65625 -12.429688 0.957031 -13.347656 1.5625 -13.984375 C 2.164062 -14.628906 3.039062 -14.953125 4.1875 -14.953125 C 5.320312 -14.953125 6.191406 -14.628906 6.796875 -13.984375 C 7.398438 -13.347656 7.703125 -12.429688 7.703125 -11.234375 L 7.703125 -3.546875 C 7.703125 -2.347656 7.398438 -1.425781 6.796875 -0.78125 C 6.191406 -0.144531 5.320312 0.171875 4.1875 0.171875 C 3.039062 0.171875 2.164062 -0.144531 1.5625 -0.78125 C 0.957031 -1.425781 0.65625 -2.347656 0.65625 -3.546875 Z M 0.65625 -11.234375 "/></g></g></g><g fill="#222222" fill-opacity="1"><g transform="translate(47.219558, 16.775718)"><g><path d="M 5.453125 -11.15625 C 5.453125 -11.8125 5.34375 -12.253906 5.125 -12.484375 C 4.90625 -12.722656 4.613281 -12.84375 4.25 -12.84375 C 3.882812 -12.84375 3.59375 -12.734375 3.375 -12.515625 C 3.15625 -12.296875 3.046875 -11.921875 3.046875 -11.390625 L 3.046875 -9.796875 L 0.84375 -9.796875 L 0.84375 -11.234375 C 0.84375 -12.429688 1.132812 -13.347656 1.71875 -13.984375 C 2.300781 -14.628906 3.164062 -14.953125 4.3125 -14.953125 C 5.445312 -14.953125 6.304688 -14.628906 6.890625 -13.984375 C 7.484375 -13.347656 7.78125 -12.429688 7.78125 -11.234375 C 7.78125 -10.460938 7.664062 -9.765625 7.4375 -9.140625 C 7.207031 -8.515625 6.921875 -7.941406 6.578125 -7.421875 C 6.234375 -6.910156 5.859375 -6.4375 5.453125 -6 C 5.054688 -5.5625 4.6875 -5.144531 4.34375 -4.75 C 4 -4.351562 3.710938 -3.96875 3.484375 -3.59375 C 3.253906 -3.226562 3.140625 -2.835938 3.140625 -2.421875 C 3.140625 -2.285156 3.148438 -2.179688 3.171875 -2.109375 L 7.5625 -2.109375 L 7.5625 0 L 0.84375 0 L 0.84375 -1.8125 C 0.84375 -2.53125 0.953125 -3.164062 1.171875 -3.71875 C 1.398438 -4.269531 1.6875 -4.773438 2.03125 -5.234375 C 2.382812 -5.691406 2.753906 -6.117188 3.140625 -6.515625 C 3.535156 -6.921875 3.90625 -7.347656 4.25 -7.796875 C 4.601562 -8.242188 4.890625 -8.734375 5.109375 -9.265625 C 5.335938 -9.804688 5.453125 -10.4375 5.453125 -11.15625 Z M 5.453125 -11.15625 "/></g></g></g><g fill="#222222" fill-opacity="1"><g transform="translate(55.427032, 16.775718)"><g><path d="M 0.703125 -11.109375 C 0.703125 -12.359375 0.988281 -13.3125 1.5625 -13.96875 C 2.132812 -14.625 3.03125 -14.953125 4.25 -14.953125 C 5.382812 -14.953125 6.242188 -14.628906 6.828125 -13.984375 C 7.410156 -13.347656 7.703125 -12.429688 7.703125 -11.234375 L 7.703125 -10.859375 L 5.515625 -10.859375 L 5.515625 -11.390625 C 5.515625 -11.921875 5.40625 -12.296875 5.1875 -12.515625 C 4.96875 -12.734375 4.675781 -12.84375 4.3125 -12.84375 C 3.90625 -12.84375 3.585938 -12.710938 3.359375 -12.453125 C 3.128906 -12.203125 3.015625 -11.726562 3.015625 -11.03125 L 3.015625 -8.328125 C 3.429688 -9.203125 4.148438 -9.640625 5.171875 -9.640625 C 6.035156 -9.640625 6.679688 -9.347656 7.109375 -8.765625 C 7.535156 -8.191406 7.75 -7.351562 7.75 -6.25 L 7.75 -3.546875 C 7.75 -2.347656 7.445312 -1.425781 6.84375 -0.78125 C 6.238281 -0.144531 5.363281 0.171875 4.21875 0.171875 C 3.082031 0.171875 2.210938 -0.144531 1.609375 -0.78125 C 1.003906 -1.425781 0.703125 -2.347656 0.703125 -3.546875 Z M 4.21875 -7.515625 C 3.851562 -7.515625 3.5625 -7.40625 3.34375 -7.1875 C 3.125 -6.96875 3.015625 -6.59375 3.015625 -6.0625 L 3.015625 -3.40625 C 3.015625 -2.863281 3.125 -2.488281 3.34375 -2.28125 C 3.5625 -2.070312 3.851562 -1.96875 4.21875 -1.96875 C 4.59375 -1.96875 4.882812 -2.070312 5.09375 -2.28125 C 5.3125 -2.488281 5.421875 -2.863281 5.421875 -3.40625 L 5.421875 -6.0625 C 5.421875 -6.59375 5.3125 -6.96875 5.09375 -7.1875 C 4.882812 -7.40625 4.59375 -7.515625 4.21875 -7.515625 Z M 4.21875 -7.515625 "/></g></g></g></g></g><g transform="matrix(1, 0, 0, 1, 165, 29)"><g clip-path="url(#1899022879)"><g fill="#222222" fill-opacity="1"><g transform="translate(1.089235, 201.512093)"><g/></g></g><g fill="#222222" fill-opacity="1"><g transform="translate(19.545159, 201.512093)"><g><path d="M 23.78125 2.125 C 19.050781 2.125 15 0.441406 11.625 -2.921875 C 8.25 -6.296875 6.5625 -10.289062 6.5625 -14.90625 C 6.5625 -19.644531 8.25 -23.695312 11.625 -27.0625 C 15 -30.4375 19.050781 -32.125 23.78125 -32.125 C 28.394531 -32.125 32.390625 -30.4375 35.765625 -27.0625 C 39.140625 -23.695312 40.828125 -19.644531 40.828125 -14.90625 C 40.828125 -11.832031 40.054688 -8.992188 38.515625 -6.390625 C 36.972656 -3.785156 34.929688 -1.710938 32.390625 -0.171875 C 29.847656 1.359375 26.976562 2.125 23.78125 2.125 Z M 23.78125 2.125 "/></g></g></g></g></g><g clip-path="url(#868e175bb1)"><g clip-path="url(#0ea755c6f6)"><g transform="matrix(1, 0, 0, 1, 197, 219)"><g clip-path="url(#ea03affd9b)"><g clip-path="url(#80a77b529e)"><g clip-path="url(#b101f9a101)"><path fill="#f6f4f0" d="M 0.488281 0.222656 L 22.453125 0.222656 L 22.453125 19.414062 L 0.488281 19.414062 Z M 0.488281 0.222656 " fill-opacity="1" fill-rule="nonzero"/></g></g></g></g></g></g><g transform="matrix(1, 0, 0, 1, 120, 1)"><g clip-path="url(#0a6dae9d3e)"><g fill="#222222" fill-opacity="1"><g transform="translate(1.813561, 201.966944)"><g><path d="M 31.59375 38.875 C 24.375 38.875 18.304688 37.507812 13.390625 34.78125 C 8.484375 32.0625 4.785156 28.332031 2.296875 23.59375 C -0.179688 18.863281 -1.421875 13.484375 -1.421875 7.453125 C -1.421875 1.421875 -0.238281 -4.992188 2.125 -11.796875 C 4.5 -18.609375 8.4375 -25.328125 13.9375 -31.953125 C 19.4375 -38.578125 26.859375 -44.726562 36.203125 -50.40625 L 36.203125 -99.40625 L 11.53125 -99.40625 L 11.53125 -124.25 L 64.4375 -124.25 L 64.4375 1.421875 C 64.4375 8.878906 63.25 15.414062 60.875 21.03125 C 58.507812 26.65625 54.898438 31.035156 50.046875 34.171875 C 45.203125 37.304688 39.050781 38.875 31.59375 38.875 Z M 30 13.3125 C 31.414062 13.3125 32.65625 12.894531 33.71875 12.0625 C 34.789062 11.238281 35.59375 10.085938 36.125 8.609375 C 36.65625 7.128906 36.921875 5.382812 36.921875 3.375 L 36.921875 -23.78125 C 33.609375 -21.0625 30.914062 -18.25 28.84375 -15.34375 C 26.769531 -12.445312 25.257812 -9.460938 24.3125 -6.390625 C 23.363281 -3.316406 22.890625 0.0546875 22.890625 3.734375 C 22.890625 6.804688 23.597656 9.171875 25.015625 10.828125 C 26.441406 12.484375 28.101562 13.3125 30 13.3125 Z M 30 13.3125 "/></g></g></g></g></g><g fill="#f6f4f0" fill-opacity="1"><g transform="translate(136.974092, 93.883645)"><g><path d="M 1.21875 0 L 1.21875 -13.9375 L 7.21875 -13.9375 C 8.144531 -13.9375 8.992188 -13.722656 9.765625 -13.296875 C 10.546875 -12.878906 11.164062 -12.296875 11.625 -11.546875 C 12.09375 -10.796875 12.328125 -9.925781 12.328125 -8.9375 C 12.328125 -7.957031 12.09375 -7.082031 11.625 -6.3125 C 11.164062 -5.550781 10.550781 -4.957031 9.78125 -4.53125 C 9.007812 -4.113281 8.15625 -3.90625 7.21875 -3.90625 L 4.5625 -3.90625 L 4.5625 0 Z M 4.5625 -6.71875 L 6.828125 -6.71875 C 7.234375 -6.71875 7.59375 -6.800781 7.90625 -6.96875 C 8.226562 -7.144531 8.488281 -7.398438 8.6875 -7.734375 C 8.882812 -8.066406 8.984375 -8.460938 8.984375 -8.921875 C 8.984375 -9.390625 8.882812 -9.789062 8.6875 -10.125 C 8.488281 -10.457031 8.222656 -10.710938 7.890625 -10.890625 C 7.566406 -11.066406 7.210938 -11.15625 6.828125 -11.15625 L 4.5625 -11.15625 Z M 4.5625 -6.71875 "/></g></g></g><g fill="#f6f4f0" fill-opacity="1"><g transform="translate(148.16275, 93.883645)"><g/></g></g><g fill="#f6f4f0" fill-opacity="1"><g transform="translate(151.805439, 93.883645)"><g><path d="M 1.21875 0 L 1.21875 -13.9375 L 7.59375 -13.9375 C 8.53125 -13.9375 9.382812 -13.726562 10.15625 -13.3125 C 10.9375 -12.90625 11.554688 -12.335938 12.015625 -11.609375 C 12.472656 -10.878906 12.703125 -10.035156 12.703125 -9.078125 C 12.703125 -8.191406 12.488281 -7.394531 12.0625 -6.6875 C 11.644531 -5.976562 11.09375 -5.398438 10.40625 -4.953125 L 11.515625 -3.0625 C 11.578125 -2.96875 11.648438 -2.894531 11.734375 -2.84375 C 11.828125 -2.789062 11.945312 -2.765625 12.09375 -2.765625 L 13.328125 -2.765625 L 13.328125 0 L 11.375 0 C 10.78125 0 10.234375 -0.140625 9.734375 -0.421875 C 9.242188 -0.710938 8.863281 -1.085938 8.59375 -1.546875 L 7.09375 -4.203125 C 7 -4.203125 6.898438 -4.203125 6.796875 -4.203125 C 6.703125 -4.203125 6.601562 -4.203125 6.5 -4.203125 L 4.5625 -4.203125 L 4.5625 0 Z M 4.5625 -6.96875 L 7.21875 -6.96875 C 7.601562 -6.96875 7.957031 -7.050781 8.28125 -7.21875 C 8.613281 -7.382812 8.875 -7.625 9.0625 -7.9375 C 9.257812 -8.25 9.359375 -8.625 9.359375 -9.0625 C 9.359375 -9.5 9.257812 -9.875 9.0625 -10.1875 C 8.863281 -10.5 8.601562 -10.738281 8.28125 -10.90625 C 7.957031 -11.070312 7.601562 -11.15625 7.21875 -11.15625 L 4.5625 -11.15625 Z M 4.5625 -6.96875 "/></g></g></g><g fill="#f6f4f0" fill-opacity="1"><g transform="translate(163.790504, 93.883645)"><g/></g></g><g fill="#f6f4f0" fill-opacity="1"><g transform="translate(167.433192, 93.883645)"><g><path d="M 7.96875 0.265625 C 6.851562 0.265625 5.84375 0.078125 4.9375 -0.296875 C 4.03125 -0.671875 3.253906 -1.1875 2.609375 -1.84375 C 1.960938 -2.507812 1.460938 -3.28125 1.109375 -4.15625 C 0.753906 -5.039062 0.578125 -5.988281 0.578125 -7 C 0.578125 -8 0.753906 -8.9375 1.109375 -9.8125 C 1.460938 -10.695312 1.957031 -11.46875 2.59375 -12.125 C 3.238281 -12.78125 4.015625 -13.289062 4.921875 -13.65625 C 5.835938 -14.019531 6.851562 -14.203125 7.96875 -14.203125 C 9.070312 -14.203125 10.078125 -14.019531 10.984375 -13.65625 C 11.890625 -13.289062 12.664062 -12.78125 13.3125 -12.125 C 13.957031 -11.46875 14.457031 -10.695312 14.8125 -9.8125 C 15.175781 -8.925781 15.359375 -7.988281 15.359375 -7 C 15.359375 -5.988281 15.175781 -5.039062 14.8125 -4.15625 C 14.457031 -3.28125 13.957031 -2.507812 13.3125 -1.84375 C 12.664062 -1.1875 11.890625 -0.671875 10.984375 -0.296875 C 10.078125 0.078125 9.070312 0.265625 7.96875 0.265625 Z M 7.96875 -2.59375 C 8.550781 -2.59375 9.09375 -2.703125 9.59375 -2.921875 C 10.09375 -3.140625 10.519531 -3.445312 10.875 -3.84375 C 11.238281 -4.238281 11.519531 -4.707031 11.71875 -5.25 C 11.914062 -5.789062 12.015625 -6.375 12.015625 -7 C 12.015625 -7.613281 11.914062 -8.1875 11.71875 -8.71875 C 11.519531 -9.25 11.238281 -9.710938 10.875 -10.109375 C 10.519531 -10.515625 10.09375 -10.828125 9.59375 -11.046875 C 9.09375 -11.265625 8.550781 -11.375 7.96875 -11.375 C 7.375 -11.375 6.828125 -11.265625 6.328125 -11.046875 C 5.835938 -10.828125 5.410156 -10.515625 5.046875 -10.109375 C 4.679688 -9.710938 4.398438 -9.242188 4.203125 -8.703125 C 4.015625 -8.171875 3.921875 -7.601562 3.921875 -7 C 3.921875 -6.375 4.015625 -5.789062 4.203125 -5.25 C 4.398438 -4.707031 4.679688 -4.238281 5.046875 -3.84375 C 5.410156 -3.445312 5.835938 -3.140625 6.328125 -2.921875 C 6.828125 -2.703125 7.375 -2.59375 7.96875 -2.59375 Z M 7.96875 -2.59375 "/></g></g></g><g clip-path="url(#b1c9ce128a)"><g clip-path="url(#065a237d4f)"><g clip-path="url(#ea22e3eb34)"><g transform="matrix(1, 0, 0, 1, 78, 208)"><g clip-path="url(#ffce0d036e)"><g clip-path="url(#d72f148f09)"><g clip-path="url(#087821d0c6)"><g clip-path="url(#c9e946a8b6)"><path fill="#f6f4f0" d="M 0.203125 10.699219 L 0.667969 0.386719 L 9.675781 0.792969 L 9.214844 11.101562 Z M 0.203125 10.699219 " fill-opacity="1" fill-rule="nonzero"/></g></g></g></g></g></g></g></g></svg>